<!-- based on paths-data-18-f.svg from SVG test suite -->
<svg viewBox="0 0 480 360" xmlns="http://www.w3.org/2000/svg">
    <title>Invalid data processing</title>

    <g fill="gold">
        <rect x="220" y="40" width="160" height="8"/>
        <rect x="220" y="80" width="160" height="8"/>
        <rect x="220" y="120" width="160" height="8"/>
        <rect x="220" y="160" width="160" height="8"/>
        <rect x="64.6" y="200" width="319.5" height="8"/>
        <rect x="140" y="240" width="160" height="8"/>
        <rect x="220" y="280" width="160" height="8"/>
    </g>

    <g transform="translate(60,-30) scale(8,2)">
        <path d="M 20 40 H 40" stroke-width="2" stroke="red"/>
        <path d="M 20 40
                 H 40" stroke-width="4" stroke="black"/>

        <path d="M 20 60 H 40" stroke-width="2" stroke="red"/>
        <path d="
                  M
                  20
                  60
                  H
                  40
                  " stroke-width="4" stroke="black"/>

        <path d="M 20 80 H40" stroke-width="2" stroke="red"/>
        <path d="M       20,80          H    40" stroke-width="4" stroke="black"/>

        <path d="M 20 100 H 40#90" stroke-width="2" stroke="red"/>
        <path d="M 20 100 H 40" stroke-width="4" stroke="black"/>

        <path d="M 20 120 H 40.5 0.6" stroke-width="2" stroke="red"/>
        <path d="M 20 120 H 40.5.6" stroke-width="4" stroke="black"/>

        <path d="M 20 140 h 10 -20" stroke-width="2" stroke="red"/>
        <path d="M 20 140 h 10-20" stroke-width="4" stroke="black"/>

        <path d="M 20 160 H 40" stroke-width="2" stroke="red"/>
        <path d="M 20 160 H 40#90" stroke-width="4" stroke="black"/>
    </g>

    <rect x="1" y="1" width="479" height="359" fill="none" stroke="black"/>
</svg>
