<?xml version="1.0" encoding="UTF-8" standalone="yes"?>
<!-- Generated by https://github.com/RazrFalcon/barh -->
<svg height="260" shape-rendering="crispEdges" width="841" xmlns="http://www.w3.org/2000/svg">
    <text font-family="Arial" font-size="16" x="79" y="38">resvg git</text>
    <text font-family="Arial" font-size="16" x="4" y="71">Chromium r555668</text>
    <text font-family="Arial" font-size="16" x="78" y="104">Batik 1.9</text>
    <text font-family="Arial" font-size="16" x="27" y="137">Inkscape 0.92.2</text>
    <text font-family="Arial" font-size="16" x="45" y="170">librsvg 2.42.4</text>
    <text font-family="Arial" font-size="16" x="50" y="203">QtSvg 5.10.1</text>
    <rect fill="#ccc" height="209" width="1" x="144" y="10"/>
    <text fill="#000" font-family="Arial" font-size="16" x="140" y="233">0</text>
    <rect fill="#ccc" height="209" width="1" x="314" y="10"/>
    <text fill="#000" font-family="Arial" font-size="16" x="302" y="233">161</text>
    <rect fill="#ccc" height="209" width="1" x="485" y="10"/>
    <text fill="#000" font-family="Arial" font-size="16" x="472" y="233">323</text>
    <rect fill="#ccc" height="209" width="1" x="656" y="10"/>
    <text fill="#000" font-family="Arial" font-size="16" x="643" y="233">484</text>
    <rect fill="#ccc" height="209" width="1" x="827" y="10"/>
    <text fill="#000" font-family="Arial" font-size="16" x="814" y="233">645</text>
    <rect fill="#3260cd" height="22" width="631" x="144" y="21"/>
    <text fill="#fff" font-family="Arial" font-size="16" x="745" y="38">596</text>
    <rect fill="#3260cd" height="22" width="633" x="144" y="54"/>
    <text fill="#fff" font-family="Arial" font-size="16" x="747" y="71">598</text>
    <rect fill="#3260cd" height="22" width="514" x="144" y="87"/>
    <text fill="#fff" font-family="Arial" font-size="16" x="628" y="104">486</text>
    <rect fill="#3260cd" height="22" width="541" x="144" y="120"/>
    <text fill="#fff" font-family="Arial" font-size="16" x="658" y="137">511</text>
    <rect fill="#3260cd" height="22" width="508" x="144" y="153"/>
    <text fill="#fff" font-family="Arial" font-size="16" x="622" y="170">480</text>
    <rect fill="#3260cd" height="22" width="352" x="144" y="186"/>
    <text fill="#fff" font-family="Arial" font-size="16" x="466" y="203">333</text>
    <rect fill="#333" height="209" width="1" x="144" y="10"/>
    <text font-family="Arial" font-size="16" font-style="italic" x="444" y="255">Tests passed</text>
</svg>
