<?xml version="1.0" encoding="UTF-8" standalone="yes"?>
<!-- Generated by https://github.com/RazrFalcon/barh -->
<svg height="227" shape-rendering="crispEdges" width="842" xmlns="http://www.w3.org/2000/svg">
    <text font-family="Arial" font-size="16" x="62" y="36">resvg 0.2.0</text>
    <text font-family="Arial" font-size="16" x="4" y="71">Chromium r536395</text>
    <text font-family="Arial" font-size="16" x="28" y="102">Inkscape 0.92.2</text>
    <text font-family="Arial" font-size="16" x="37" y="137">librsvg 2.40.18</text>
    <text font-family="Arial" font-size="16" x="57" y="170">QtSvg 5.9.4</text>
    <rect fill="#ccc" height="176" width="1" x="145" y="10"/>
    <text fill="#000" font-family="Arial" font-size="16" x="141" y="200">0</text>
    <rect fill="#ccc" height="176" width="1" x="315" y="10"/>
    <text fill="#000" font-family="Arial" font-size="16" x="302" y="200">126</text>
    <rect fill="#ccc" height="176" width="1" x="486" y="10"/>
    <text fill="#000" font-family="Arial" font-size="16" x="474" y="200">251</text>
    <rect fill="#ccc" height="176" width="1" x="657" y="10"/>
    <text fill="#000" font-family="Arial" font-size="16" x="644" y="200">377</text>
    <rect fill="#ccc" height="176" width="1" x="828" y="10"/>
    <text fill="#000" font-family="Arial" font-size="16" x="815" y="200">502</text>
    <rect fill="#3260cd" height="22" width="608" x="145" y="21"/>
    <text fill="#fff" font-family="Arial" font-size="16" x="723" y="36">447</text>
    <rect fill="#3260cd" height="22" width="654" x="145" y="54"/>
    <text fill="#fff" font-family="Arial" font-size="16" x="771" y="71">481</text>
    <rect fill="#3260cd" height="22" width="580" x="145" y="87"/>
    <text fill="#fff" font-family="Arial" font-size="16" x="695" y="102">427</text>
    <rect fill="#3260cd" height="22" width="500" x="145" y="120"/>
    <text fill="#fff" font-family="Arial" font-size="16" x="615" y="137">368</text>
    <rect fill="#3260cd" height="22" width="414" x="145" y="153"/>
    <text fill="#fff" font-family="Arial" font-size="16" x="529" y="170">305</text>
    <rect fill="#333" height="176" width="1" x="145" y="10"/>
    <text font-family="Arial" font-size="16" font-style="italic" x="445" y="222">Tests passed</text>
</svg>
