<?xml version="1.0" encoding="UTF-8" standalone="yes"?>
<!-- Generated by https://github.com/RazrFalcon/barh -->
<svg height="293" shape-rendering="crispEdges" width="839" xmlns="http://www.w3.org/2000/svg">
    <text font-family="Arial" font-size="16" x="77" y="38">resvg git</text>
    <text font-family="Arial" font-size="16" x="59" y="71">resvg 0.2.0</text>
    <text font-family="Arial" font-size="16" x="4" y="104">Chromium r549031</text>
    <text font-family="Arial" font-size="16" x="76" y="137">Batik 1.9</text>
    <text font-family="Arial" font-size="16" x="25" y="170">Inkscape 0.92.2</text>
    <text font-family="Arial" font-size="16" x="34" y="203">librsvg 2.40.18</text>
    <text font-family="Arial" font-size="16" x="54" y="236">QtSvg 5.9.4</text>
    <rect fill="#ccc" height="242" width="1" x="142" y="10"/>
    <text fill="#000" font-family="Arial" font-size="16" x="138" y="266">0</text>
    <rect fill="#ccc" height="242" width="1" x="312" y="10"/>
    <text fill="#000" font-family="Arial" font-size="16" x="299" y="266">135</text>
    <rect fill="#ccc" height="242" width="1" x="483" y="10"/>
    <text fill="#000" font-family="Arial" font-size="16" x="470" y="266">269</text>
    <rect fill="#ccc" height="242" width="1" x="654" y="10"/>
    <text fill="#000" font-family="Arial" font-size="16" x="641" y="266">404</text>
    <rect fill="#ccc" height="242" width="1" x="825" y="10"/>
    <text fill="#000" font-family="Arial" font-size="16" x="812" y="266">538</text>
    <rect fill="#3260cd" height="22" width="627" x="142" y="21"/>
    <text fill="#fff" font-family="Arial" font-size="16" x="739" y="38">494</text>
    <rect fill="#3260cd" height="22" width="622" x="142" y="54"/>
    <text fill="#fff" font-family="Arial" font-size="16" x="734" y="71">490</text>
    <rect fill="#3260cd" height="22" width="656" x="142" y="87"/>
    <text fill="#fff" font-family="Arial" font-size="16" x="768" y="104">517</text>
    <rect fill="#3260cd" height="22" width="531" x="142" y="120"/>
    <text fill="#fff" font-family="Arial" font-size="16" x="643" y="137">419</text>
    <rect fill="#3260cd" height="22" width="581" x="142" y="153"/>
    <text fill="#fff" font-family="Arial" font-size="16" x="693" y="170">458</text>
    <rect fill="#3260cd" height="22" width="506" x="142" y="186"/>
    <text fill="#fff" font-family="Arial" font-size="16" x="618" y="203">399</text>
    <rect fill="#3260cd" height="22" width="391" x="142" y="219"/>
    <text fill="#fff" font-family="Arial" font-size="16" x="503" y="236">308</text>
    <rect fill="#333" height="242" width="1" x="142" y="10"/>
    <text font-family="Arial" font-size="16" font-style="italic" x="442" y="288">Tests passed</text>
</svg>
