<?xml version="1.0" encoding="UTF-8" standalone="yes"?>
<!-- Generated by https://github.com/RazrFalcon/barh -->
<svg height="227" shape-rendering="crispEdges" width="842" xmlns="http://www.w3.org/2000/svg">
    <text font-family="Arial" font-size="16" x="62" y="38">resvg 0.2.0</text>
    <text font-family="Arial" font-size="16" x="4" y="71">Chromium r536395</text>
    <text font-family="Arial" font-size="16" x="28" y="104">Inkscape 0.92.2</text>
    <text font-family="Arial" font-size="16" x="37" y="137">librsvg 2.40.18</text>
    <text font-family="Arial" font-size="16" x="57" y="170">QtSvg 5.9.4</text>
    <rect fill="#ccc" height="176" width="1" x="145" y="10"/>
    <text fill="#000" font-family="Arial" font-size="16" x="141" y="200">0</text>
    <rect fill="#ccc" height="176" width="1" x="315" y="10"/>
    <text fill="#000" font-family="Arial" font-size="16" x="302" y="200">135</text>
    <rect fill="#ccc" height="176" width="1" x="486" y="10"/>
    <text fill="#000" font-family="Arial" font-size="16" x="473" y="200">269</text>
    <rect fill="#ccc" height="176" width="1" x="657" y="10"/>
    <text fill="#000" font-family="Arial" font-size="16" x="644" y="200">404</text>
    <rect fill="#ccc" height="176" width="1" x="828" y="10"/>
    <text fill="#000" font-family="Arial" font-size="16" x="815" y="200">538</text>
    <rect fill="#3260cd" height="22" width="620" x="145" y="21"/>
    <text fill="#fff" font-family="Arial" font-size="16" x="735" y="38">489</text>
    <rect fill="#3260cd" height="22" width="656" x="145" y="54"/>
    <text fill="#fff" font-family="Arial" font-size="16" x="771" y="71">517</text>
    <rect fill="#3260cd" height="22" width="580" x="145" y="87"/>
    <text fill="#fff" font-family="Arial" font-size="16" x="695" y="104">457</text>
    <rect fill="#3260cd" height="22" width="506" x="145" y="120"/>
    <text fill="#fff" font-family="Arial" font-size="16" x="621" y="137">399</text>
    <rect fill="#3260cd" height="22" width="391" x="145" y="153"/>
    <text fill="#fff" font-family="Arial" font-size="16" x="506" y="170">308</text>
    <rect fill="#333" height="176" width="1" x="145" y="10"/>
    <text font-family="Arial" font-size="16" font-style="italic" x="445" y="222">Tests passed</text>
</svg>
