<?xml version="1.0" encoding="UTF-8" standalone="yes"?>
<!-- Generated by https://github.com/RazrFalcon/barh -->
<svg height="293" shape-rendering="crispEdges" width="841" xmlns="http://www.w3.org/2000/svg">
    <text font-family="Arial" font-size="16" x="79" y="38">resvg git</text>
    <text font-family="Arial" font-size="16" x="56" y="71">Firefox 64.0</text>
    <text font-family="Arial" font-size="16" x="4" y="104">Chromium r609904</text>
    <text font-family="Arial" font-size="16" x="27" y="137">Inkscape 0.92.2</text>
    <text font-family="Arial" font-size="16" x="48" y="170">librsvg 2.45.1</text>
    <text font-family="Arial" font-size="16" x="78" y="203">Batik 1.9</text>
    <text font-family="Arial" font-size="16" x="51" y="236">QtSvg 5.11.1</text>
    <rect fill="#ccc" height="242" width="1" x="144" y="10"/>
    <text fill="#000" font-family="Arial" font-size="16" x="140" y="266">0</text>
    <rect fill="#ccc" height="242" width="1" x="314" y="10"/>
    <text fill="#000" font-family="Arial" font-size="16" x="301" y="266">217</text>
    <rect fill="#ccc" height="242" width="1" x="485" y="10"/>
    <text fill="#000" font-family="Arial" font-size="16" x="472" y="266">434</text>
    <rect fill="#ccc" height="242" width="1" x="656" y="10"/>
    <text fill="#000" font-family="Arial" font-size="16" x="643" y="266">650</text>
    <rect fill="#ccc" height="242" width="1" x="827" y="10"/>
    <text fill="#000" font-family="Arial" font-size="16" x="814" y="266">867</text>
    <rect fill="#3260cd" height="22" width="645" x="144" y="21"/>
    <text fill="#fff" font-family="Arial" font-size="16" x="759" y="38">820</text>
    <rect fill="#3260cd" height="22" width="613" x="144" y="54"/>
    <text fill="#fff" font-family="Arial" font-size="16" x="727" y="71">779</text>
    <rect fill="#3260cd" height="22" width="622" x="144" y="87"/>
    <text fill="#fff" font-family="Arial" font-size="16" x="736" y="104">790</text>
    <rect fill="#3260cd" height="22" width="540" x="144" y="120"/>
    <text fill="#fff" font-family="Arial" font-size="16" x="654" y="137">686</text>
    <rect fill="#3260cd" height="22" width="529" x="144" y="153"/>
    <text fill="#fff" font-family="Arial" font-size="16" x="643" y="170">672</text>
    <rect fill="#3260cd" height="22" width="504" x="144" y="186"/>
    <text fill="#fff" font-family="Arial" font-size="16" x="620" y="203">641</text>
    <rect fill="#3260cd" height="22" width="299" x="144" y="219"/>
    <text fill="#fff" font-family="Arial" font-size="16" x="413" y="236">380</text>
    <rect fill="#333" height="242" width="1" x="144" y="10"/>
    <text font-family="Arial" font-size="16" font-style="italic" x="444" y="288">Tests passed</text>
</svg>
