<?xml version="1.0" encoding="UTF-8" standalone="yes"?>
<!-- Generated by https://github.com/RazrFalcon/barh -->
<svg height="293" shape-rendering="crispEdges" width="839" xmlns="http://www.w3.org/2000/svg">
    <text font-family="Arial" font-size="16" x="77" y="38">resvg git</text>
    <text font-family="Arial" font-size="16" x="41" y="71">Firefox 63.0.3</text>
    <text font-family="Arial" font-size="16" x="4" y="102">Chromium r599821</text>
    <text font-family="Arial" font-size="16" x="25" y="137">Inkscape 0.92.2</text>
    <text font-family="Arial" font-size="16" x="43" y="170">librsvg 2.44.8</text>
    <text font-family="Arial" font-size="16" x="76" y="203">Batik 1.9</text>
    <text font-family="Arial" font-size="16" x="49" y="236">QtSvg 5.11.1</text>
    <rect fill="#ccc" height="242" width="1" x="142" y="10"/>
    <text fill="#000" font-family="Arial" font-size="16" x="138" y="266">0</text>
    <rect fill="#ccc" height="242" width="1" x="312" y="10"/>
    <text fill="#000" font-family="Arial" font-size="16" x="299" y="266">197</text>
    <rect fill="#ccc" height="242" width="1" x="483" y="10"/>
    <text fill="#000" font-family="Arial" font-size="16" x="470" y="266">395</text>
    <rect fill="#ccc" height="242" width="1" x="654" y="10"/>
    <text fill="#000" font-family="Arial" font-size="16" x="641" y="266">592</text>
    <rect fill="#ccc" height="242" width="1" x="825" y="10"/>
    <text fill="#000" font-family="Arial" font-size="16" x="812" y="266">789</text>
    <rect fill="#3260cd" height="22" width="653" x="142" y="21"/>
    <text fill="#fff" font-family="Arial" font-size="16" x="765" y="38">755</text>
    <rect fill="#3260cd" height="22" width="636" x="142" y="54"/>
    <text fill="#fff" font-family="Arial" font-size="16" x="748" y="71">735</text>
    <rect fill="#3260cd" height="22" width="626" x="142" y="87"/>
    <text fill="#fff" font-family="Arial" font-size="16" x="738" y="102">724</text>
    <rect fill="#3260cd" height="22" width="547" x="142" y="120"/>
    <text fill="#fff" font-family="Arial" font-size="16" x="659" y="137">633</text>
    <rect fill="#3260cd" height="22" width="528" x="142" y="153"/>
    <text fill="#fff" font-family="Arial" font-size="16" x="643" y="170">611</text>
    <rect fill="#3260cd" height="22" width="514" x="142" y="186"/>
    <text fill="#fff" font-family="Arial" font-size="16" x="626" y="203">594</text>
    <rect fill="#3260cd" height="22" width="318" x="142" y="219"/>
    <text fill="#fff" font-family="Arial" font-size="16" x="430" y="236">368</text>
    <rect fill="#333" height="242" width="1" x="142" y="10"/>
    <text font-family="Arial" font-size="16" font-style="italic" x="442" y="288">Tests passed</text>
</svg>
