<?xml version="1.0" encoding="UTF-8" standalone="yes"?>
<!-- Generated by https://github.com/RazrFalcon/barh -->
<svg height="293" shape-rendering="crispEdges" width="841" xmlns="http://www.w3.org/2000/svg">
    <text font-family="Arial" font-size="16" x="79" y="38">resvg git</text>
    <text font-family="Arial" font-size="16" x="56" y="71">Firefox 60.7</text>
    <text font-family="Arial" font-size="16" x="4" y="104">Chromium r662092</text>
    <text font-family="Arial" font-size="16" x="27" y="137">Inkscape 0.92.4</text>
    <text font-family="Arial" font-size="16" x="45" y="170">librsvg 2.45.5</text>
    <text font-family="Arial" font-size="16" x="78" y="203">Batik 1.9</text>
    <text font-family="Arial" font-size="16" x="48" y="236">QtSvg 5.12.3</text>
    <rect fill="#ccc" height="242" width="1" x="144" y="10"/>
    <text fill="#000" font-family="Arial" font-size="16" x="140" y="266">0</text>
    <rect fill="#ccc" height="242" width="1" x="314" y="10"/>
    <text fill="#000" font-family="Arial" font-size="16" x="301" y="266">278</text>
    <rect fill="#ccc" height="242" width="1" x="484" y="10"/>
    <text fill="#000" font-family="Arial" font-size="16" x="471" y="266">555</text>
    <rect fill="#ccc" height="242" width="1" x="653" y="10"/>
    <text fill="#000" font-family="Arial" font-size="16" x="640" y="266">833</text>
    <rect fill="#ccc" height="242" width="1" x="824" y="10"/>
    <text fill="#000" font-family="Arial" font-size="16" x="808" y="266">1110</text>
    <rect fill="#3260cd" height="22" width="645" x="144" y="21"/>
    <text fill="#fff" font-family="Arial" font-size="16" x="750" y="38">1054</text>
    <rect fill="#3260cd" height="22" width="604" x="144" y="54"/>
    <text fill="#fff" font-family="Arial" font-size="16" x="718" y="71">987</text>
    <rect fill="#3260cd" height="22" width="604" x="144" y="87"/>
    <text fill="#fff" font-family="Arial" font-size="16" x="718" y="104">986</text>
    <rect fill="#3260cd" height="22" width="511" x="144" y="120"/>
    <text fill="#fff" font-family="Arial" font-size="16" x="625" y="137">835</text>
    <rect fill="#3260cd" height="22" width="503" x="144" y="153"/>
    <text fill="#fff" font-family="Arial" font-size="16" x="617" y="170">822</text>
    <rect fill="#3260cd" height="22" width="492" x="144" y="186"/>
    <text fill="#fff" font-family="Arial" font-size="16" x="606" y="203">804</text>
    <rect fill="#3260cd" height="22" width="262" x="144" y="219"/>
    <text fill="#fff" font-family="Arial" font-size="16" x="376" y="236">429</text>
    <rect fill="#333" height="242" width="1" x="144" y="10"/>
    <text font-family="Arial" font-size="16" font-style="italic" x="444" y="288">Tests passed</text>
</svg>
