<?xml version="1.0" encoding="UTF-8" standalone="yes"?>
<!-- Generated by https://github.com/RazrFalcon/barh -->
<svg height="293" shape-rendering="crispEdges" width="840" xmlns="http://www.w3.org/2000/svg">
    <text font-family="Arial" font-size="16" x="78" y="38">resvg git</text>
    <text font-family="Arial" font-size="16" x="55" y="71">Firefox 65.0</text>
    <text font-family="Arial" font-size="16" x="4" y="104">Chromium r637110</text>
    <text font-family="Arial" font-size="16" x="26" y="137">Inkscape 0.92.3</text>
    <text font-family="Arial" font-size="16" x="44" y="170">librsvg 2.45.5</text>
    <text font-family="Arial" font-size="16" x="77" y="203">Batik 1.9</text>
    <text font-family="Arial" font-size="16" x="49" y="234">QtSvg 5.12.1</text>
    <rect fill="#ccc" height="242" width="1" x="143" y="10"/>
    <text fill="#000" font-family="Arial" font-size="16" x="139" y="266">0</text>
    <rect fill="#ccc" height="242" width="1" x="312" y="10"/>
    <text fill="#000" font-family="Arial" font-size="16" x="299" y="266">268</text>
    <rect fill="#ccc" height="242" width="1" x="482" y="10"/>
    <text fill="#000" font-family="Arial" font-size="16" x="469" y="266">537</text>
    <rect fill="#ccc" height="242" width="1" x="652" y="10"/>
    <text fill="#000" font-family="Arial" font-size="16" x="639" y="266">805</text>
    <rect fill="#ccc" height="242" width="1" x="822" y="10"/>
    <text fill="#000" font-family="Arial" font-size="16" x="805" y="266">1073</text>
    <rect fill="#3260cd" height="22" width="629" x="143" y="21"/>
    <text fill="#fff" font-family="Arial" font-size="16" x="742" y="38">995</text>
    <rect fill="#3260cd" height="22" width="609" x="143" y="54"/>
    <text fill="#fff" font-family="Arial" font-size="16" x="722" y="71">963</text>
    <rect fill="#3260cd" height="22" width="604" x="143" y="87"/>
    <text fill="#fff" font-family="Arial" font-size="16" x="717" y="104">955</text>
    <rect fill="#3260cd" height="22" width="515" x="143" y="120"/>
    <text fill="#fff" font-family="Arial" font-size="16" x="628" y="137">815</text>
    <rect fill="#3260cd" height="22" width="518" x="143" y="153"/>
    <text fill="#fff" font-family="Arial" font-size="16" x="631" y="170">819</text>
    <rect fill="#3260cd" height="22" width="494" x="143" y="186"/>
    <text fill="#fff" font-family="Arial" font-size="16" x="607" y="203">782</text>
    <rect fill="#3260cd" height="22" width="267" x="143" y="219"/>
    <text fill="#fff" font-family="Arial" font-size="16" x="380" y="234">422</text>
    <rect fill="#333" height="242" width="1" x="143" y="10"/>
    <text font-family="Arial" font-size="16" font-style="italic" x="443" y="288">Tests passed</text>
</svg>
