<?xml version="1.0" encoding="UTF-8" standalone="yes"?>
<!-- Generated by https://github.com/RazrFalcon/barh -->
<svg height="326" shape-rendering="crispEdges" width="841" xmlns="http://www.w3.org/2000/svg">
    <text font-family="Arial" font-size="16" x="61" y="38">resvg 0.8.0</text>
    <text font-family="Arial" font-size="16" x="56" y="71">Firefox 60.7</text>
    <text font-family="Arial" font-size="16" x="4" y="104">Chromium r662092</text>
    <text font-family="Arial" font-size="16" x="27" y="137">Inkscape 0.92.4</text>
    <text font-family="Arial" font-size="16" x="45" y="170">librsvg 2.45.5</text>
    <text font-family="Arial" font-size="16" x="78" y="203">Batik 1.9</text>
    <text font-family="Arial" font-size="16" x="48" y="236">QtSvg 5.12.3</text>
    <text font-family="Arial" font-size="16" x="48" y="269">wxSvg 1.5.11</text>
    <rect fill="#ccc" height="275" width="1" x="144" y="10"/>
    <text fill="#000" font-family="Arial" font-size="16" x="140" y="299">0</text>
    <rect fill="#ccc" height="275" width="1" x="313" y="10"/>
    <text fill="#000" font-family="Arial" font-size="16" x="300" y="299">312</text>
    <rect fill="#ccc" height="275" width="1" x="483" y="10"/>
    <text fill="#000" font-family="Arial" font-size="16" x="470" y="299">624</text>
    <rect fill="#ccc" height="275" width="1" x="653" y="10"/>
    <text fill="#000" font-family="Arial" font-size="16" x="640" y="299">935</text>
    <rect fill="#ccc" height="275" width="1" x="823" y="10"/>
    <text fill="#000" font-family="Arial" font-size="16" x="806" y="299">1247</text>
    <rect fill="#3260cd" height="22" width="652" x="144" y="21"/>
    <text fill="#fff" font-family="Arial" font-size="16" x="758" y="38">1199</text>
    <rect fill="#3260cd" height="22" width="595" x="144" y="54"/>
    <text fill="#fff" font-family="Arial" font-size="16" x="700" y="71">1094</text>
    <rect fill="#3260cd" height="22" width="599" x="144" y="87"/>
    <text fill="#fff" font-family="Arial" font-size="16" x="707" y="104">1101</text>
    <rect fill="#3260cd" height="22" width="506" x="144" y="120"/>
    <text fill="#fff" font-family="Arial" font-size="16" x="620" y="137">930</text>
    <rect fill="#3260cd" height="22" width="508" x="144" y="153"/>
    <text fill="#fff" font-family="Arial" font-size="16" x="622" y="170">934</text>
    <rect fill="#3260cd" height="22" width="481" x="144" y="186"/>
    <text fill="#fff" font-family="Arial" font-size="16" x="595" y="203">885</text>
    <rect fill="#3260cd" height="22" width="250" x="144" y="219"/>
    <text fill="#fff" font-family="Arial" font-size="16" x="364" y="236">460</text>
    <rect fill="#3260cd" height="22" width="180" x="144" y="252"/>
    <text fill="#fff" font-family="Arial" font-size="16" x="296" y="269">331</text>
    <rect fill="#333" height="275" width="1" x="144" y="10"/>
    <text font-family="Arial" font-size="16" font-style="italic" x="444" y="321">Tests passed</text>
</svg>
