<?xml version="1.0" encoding="UTF-8" standalone="yes"?>
<!-- Generated by https://github.com/RazrFalcon/barh -->
<svg height="247" shape-rendering="crispEdges" width="742" xmlns="http://www.w3.org/2000/svg">
    <text font-family="Arial" font-size="16" font-weight="bold" x="145" y="16">resvg test suite</text>
    <text font-family="Arial" font-size="16" x="62" y="58">resvg 0.2.0</text>
    <text font-family="Arial" font-size="16" x="4" y="91">Chromium r536395</text>
    <text font-family="Arial" font-size="16" x="28" y="124">Inkscape 0.92.2</text>
    <text font-family="Arial" font-size="16" x="37" y="157">librsvg 2.40.18</text>
    <text font-family="Arial" font-size="16" x="57" y="190">QtSvg 5.9.4</text>
    <rect fill="#ccc" height="176" width="1" x="145" y="30"/>
    <text fill="#000" font-family="Arial" font-size="16" x="141" y="220">0</text>
    <rect fill="#ccc" height="176" width="1" x="289" y="30"/>
    <text fill="#000" font-family="Arial" font-size="16" x="274" y="220">92.5</text>
    <rect fill="#ccc" height="176" width="1" x="433" y="30"/>
    <text fill="#000" font-family="Arial" font-size="16" x="420" y="220">185</text>
    <rect fill="#ccc" height="176" width="1" x="577" y="30"/>
    <text fill="#000" font-family="Arial" font-size="16" x="557" y="220">277.5</text>
    <rect fill="#ccc" height="176" width="1" x="721" y="30"/>
    <text fill="#000" font-family="Arial" font-size="16" x="708" y="220">370</text>
    <rect fill="#3260cd" height="22" width="513" x="145" y="41"/>
    <text fill="#fff" font-family="Arial" font-size="16" x="628" y="58">330</text>
    <rect fill="#3260cd" height="22" width="549" x="145" y="74"/>
    <text fill="#fff" font-family="Arial" font-size="16" x="664" y="91">353</text>
    <rect fill="#3260cd" height="22" width="504" x="145" y="107"/>
    <text fill="#fff" font-family="Arial" font-size="16" x="619" y="124">324</text>
    <rect fill="#3260cd" height="22" width="434" x="145" y="140"/>
    <text fill="#fff" font-family="Arial" font-size="16" x="549" y="157">279</text>
    <rect fill="#3260cd" height="22" width="406" x="145" y="173"/>
    <text fill="#fff" font-family="Arial" font-size="16" x="523" y="190">261</text>
    <rect fill="#333" height="176" width="1" x="145" y="30"/>
    <text font-family="Arial" font-size="16" font-style="italic" x="395" y="242">Tests passed</text>
</svg>
