<?xml version="1.0" encoding="UTF-8" standalone="yes"?>
<!-- Generated by https://github.com/RazrFalcon/barh -->
<svg height="260" shape-rendering="crispEdges" width="839" xmlns="http://www.w3.org/2000/svg">
    <text font-family="Arial" font-size="16" x="77" y="38">resvg git</text>
    <text font-family="Arial" font-size="16" x="4" y="71">Chromium r549031</text>
    <text font-family="Arial" font-size="16" x="76" y="104">Batik 1.9</text>
    <text font-family="Arial" font-size="16" x="25" y="137">Inkscape 0.92.2</text>
    <text font-family="Arial" font-size="16" x="43" y="170">librsvg 2.42.3</text>
    <text font-family="Arial" font-size="16" x="54" y="203">QtSvg 5.9.4</text>
    <rect fill="#ccc" height="209" width="1" x="142" y="10"/>
    <text fill="#000" font-family="Arial" font-size="16" x="138" y="233">0</text>
    <rect fill="#ccc" height="209" width="1" x="312" y="10"/>
    <text fill="#000" font-family="Arial" font-size="16" x="299" y="233">156</text>
    <rect fill="#ccc" height="209" width="1" x="483" y="10"/>
    <text fill="#000" font-family="Arial" font-size="16" x="472" y="233">311</text>
    <rect fill="#ccc" height="209" width="1" x="654" y="10"/>
    <text fill="#000" font-family="Arial" font-size="16" x="641" y="233">467</text>
    <rect fill="#ccc" height="209" width="1" x="825" y="10"/>
    <text fill="#000" font-family="Arial" font-size="16" x="812" y="233">622</text>
    <rect fill="#3260cd" height="22" width="633" x="142" y="21"/>
    <text fill="#fff" font-family="Arial" font-size="16" x="745" y="38">577</text>
    <rect fill="#3260cd" height="22" width="639" x="142" y="54"/>
    <text fill="#fff" font-family="Arial" font-size="16" x="751" y="71">582</text>
    <rect fill="#3260cd" height="22" width="527" x="142" y="87"/>
    <text fill="#fff" font-family="Arial" font-size="16" x="639" y="104">480</text>
    <rect fill="#3260cd" height="22" width="550" x="142" y="120"/>
    <text fill="#fff" font-family="Arial" font-size="16" x="664" y="137">501</text>
    <rect fill="#3260cd" height="22" width="513" x="142" y="153"/>
    <text fill="#fff" font-family="Arial" font-size="16" x="625" y="170">468</text>
    <rect fill="#3260cd" height="22" width="363" x="142" y="186"/>
    <text fill="#fff" font-family="Arial" font-size="16" x="477" y="203">331</text>
    <rect fill="#333" height="209" width="1" x="142" y="10"/>
    <text font-family="Arial" font-size="16" font-style="italic" x="442" y="255">Tests passed</text>
</svg>
