<?xml version="1.0" encoding="UTF-8" standalone="yes"?>
<!-- Generated by https://github.com/RazrFalcon/barh -->
<svg height="293" shape-rendering="crispEdges" width="839" xmlns="http://www.w3.org/2000/svg">
    <text font-family="Arial" font-size="16" x="77" y="38">resvg git</text>
    <text font-family="Arial" font-size="16" x="41" y="71">Firefox 63.0.3</text>
    <text font-family="Arial" font-size="16" x="4" y="102">Chromium r599821</text>
    <text font-family="Arial" font-size="16" x="25" y="137">Inkscape 0.92.2</text>
    <text font-family="Arial" font-size="16" x="43" y="170">librsvg 2.50.0</text>
    <text font-family="Arial" font-size="16" x="76" y="203">Batik 1.9</text>
    <text font-family="Arial" font-size="16" x="49" y="236">QtSvg 5.11.1</text>
    <rect fill="#ccc" height="242" width="1" x="142" y="10"/>
    <text fill="#000" font-family="Arial" font-size="16" x="138" y="266">0</text>
    <rect fill="#ccc" height="242" width="1" x="312" y="10"/>
    <text fill="#000" font-family="Arial" font-size="16" x="299" y="266">204</text>
    <rect fill="#ccc" height="242" width="1" x="483" y="10"/>
    <text fill="#000" font-family="Arial" font-size="16" x="470" y="266">408</text>
    <rect fill="#ccc" height="242" width="1" x="654" y="10"/>
    <text fill="#000" font-family="Arial" font-size="16" x="643" y="266">611</text>
    <rect fill="#ccc" height="242" width="1" x="825" y="10"/>
    <text fill="#000" font-family="Arial" font-size="16" x="812" y="266">815</text>
    <rect fill="#3260cd" height="22" width="652" x="142" y="21"/>
    <text fill="#fff" font-family="Arial" font-size="16" x="764" y="38">779</text>
    <rect fill="#3260cd" height="22" width="634" x="142" y="54"/>
    <text fill="#fff" font-family="Arial" font-size="16" x="746" y="71">757</text>
    <rect fill="#3260cd" height="22" width="626" x="142" y="87"/>
    <text fill="#fff" font-family="Arial" font-size="16" x="738" y="102">747</text>
    <rect fill="#3260cd" height="22" width="542" x="142" y="120"/>
    <text fill="#fff" font-family="Arial" font-size="16" x="654" y="137">647</text>
    <rect fill="#3260cd" height="22" width="529" x="142" y="153"/>
    <text fill="#fff" font-family="Arial" font-size="16" x="641" y="170">632</text>
    <rect fill="#3260cd" height="22" width="507" x="142" y="186"/>
    <text fill="#fff" font-family="Arial" font-size="16" x="619" y="203">606</text>
    <rect fill="#3260cd" height="22" width="308" x="142" y="219"/>
    <text fill="#fff" font-family="Arial" font-size="16" x="420" y="236">368</text>
    <rect fill="#333" height="242" width="1" x="142" y="10"/>
    <text font-family="Arial" font-size="16" font-style="italic" x="442" y="288">Tests passed</text>
</svg>
