<?xml version="1.0" encoding="UTF-8" standalone="yes"?>
<!-- Generated by https://github.com/RazrFalcon/barh -->
<svg height="247" shape-rendering="crispEdges" width="842" xmlns="http://www.w3.org/2000/svg">
    <text font-family="Arial" font-size="16" font-weight="bold" x="145" y="16">resvg test suite</text>
    <text font-family="Arial" font-size="16" x="62" y="56">resvg 0.2.0</text>
    <text font-family="Arial" font-size="16" x="4" y="91">Chromium r536395</text>
    <text font-family="Arial" font-size="16" x="28" y="124">Inkscape 0.92.2</text>
    <text font-family="Arial" font-size="16" x="37" y="157">librsvg 2.40.18</text>
    <text font-family="Arial" font-size="16" x="57" y="190">QtSvg 5.9.4</text>
    <rect fill="#ccc" height="176" width="1" x="145" y="30"/>
    <text fill="#000" font-family="Arial" font-size="16" x="141" y="220">0</text>
    <rect fill="#ccc" height="176" width="1" x="315" y="30"/>
    <text fill="#000" font-family="Arial" font-size="16" x="303" y="220">117</text>
    <rect fill="#ccc" height="176" width="1" x="486" y="30"/>
    <text fill="#000" font-family="Arial" font-size="16" x="473" y="220">235</text>
    <rect fill="#ccc" height="176" width="1" x="657" y="30"/>
    <text fill="#000" font-family="Arial" font-size="16" x="644" y="220">352</text>
    <rect fill="#ccc" height="176" width="1" x="828" y="30"/>
    <text fill="#000" font-family="Arial" font-size="16" x="815" y="220">469</text>
    <rect fill="#3260cd" height="22" width="602" x="145" y="41"/>
    <text fill="#fff" font-family="Arial" font-size="16" x="717" y="56">414</text>
    <rect fill="#3260cd" height="22" width="655" x="145" y="74"/>
    <text fill="#fff" font-family="Arial" font-size="16" x="770" y="91">450</text>
    <rect fill="#3260cd" height="22" width="583" x="145" y="107"/>
    <text fill="#fff" font-family="Arial" font-size="16" x="700" y="124">401</text>
    <rect fill="#3260cd" height="22" width="505" x="145" y="140"/>
    <text fill="#fff" font-family="Arial" font-size="16" x="620" y="157">347</text>
    <rect fill="#3260cd" height="22" width="416" x="145" y="173"/>
    <text fill="#fff" font-family="Arial" font-size="16" x="531" y="190">286</text>
    <rect fill="#333" height="176" width="1" x="145" y="30"/>
    <text font-family="Arial" font-size="16" font-style="italic" x="445" y="242">Tests passed</text>
</svg>
