<?xml version="1.0" encoding="UTF-8" standalone="yes"?>
<!-- Generated by https://github.com/RazrFalcon/barh -->
<svg height="293" shape-rendering="crispEdges" width="841" xmlns="http://www.w3.org/2000/svg">
    <text font-family="Arial" font-size="16" x="79" y="38">resvg git</text>
    <text font-family="Arial" font-size="16" x="56" y="71">Firefox 64.0</text>
    <text font-family="Arial" font-size="16" x="4" y="104">Chromium r609904</text>
    <text font-family="Arial" font-size="16" x="27" y="137">Inkscape 0.92.3</text>
    <text font-family="Arial" font-size="16" x="45" y="170">librsvg 2.45.2</text>
    <text font-family="Arial" font-size="16" x="78" y="203">Batik 1.9</text>
    <text font-family="Arial" font-size="16" x="51" y="236">QtSvg 5.11.1</text>
    <rect fill="#ccc" height="242" width="1" x="144" y="10"/>
    <text fill="#000" font-family="Arial" font-size="16" x="140" y="266">0</text>
    <rect fill="#ccc" height="242" width="1" x="313" y="10"/>
    <text fill="#000" font-family="Arial" font-size="16" x="300" y="266">254</text>
    <rect fill="#ccc" height="242" width="1" x="483" y="10"/>
    <text fill="#000" font-family="Arial" font-size="16" x="470" y="266">508</text>
    <rect fill="#ccc" height="242" width="1" x="653" y="10"/>
    <text fill="#000" font-family="Arial" font-size="16" x="641" y="266">761</text>
    <rect fill="#ccc" height="242" width="1" x="823" y="10"/>
    <text fill="#000" font-family="Arial" font-size="16" x="806" y="266">1015</text>
    <rect fill="#3260cd" height="22" width="643" x="144" y="21"/>
    <text fill="#fff" font-family="Arial" font-size="16" x="757" y="38">962</text>
    <rect fill="#3260cd" height="22" width="608" x="144" y="54"/>
    <text fill="#fff" font-family="Arial" font-size="16" x="722" y="71">910</text>
    <rect fill="#3260cd" height="22" width="611" x="144" y="87"/>
    <text fill="#fff" font-family="Arial" font-size="16" x="725" y="104">914</text>
    <rect fill="#3260cd" height="22" width="526" x="144" y="120"/>
    <text fill="#fff" font-family="Arial" font-size="16" x="640" y="137">787</text>
    <rect fill="#3260cd" height="22" width="522" x="144" y="153"/>
    <text fill="#fff" font-family="Arial" font-size="16" x="638" y="170">781</text>
    <rect fill="#3260cd" height="22" width="492" x="144" y="186"/>
    <text fill="#fff" font-family="Arial" font-size="16" x="606" y="203">736</text>
    <rect fill="#3260cd" height="22" width="272" x="144" y="219"/>
    <text fill="#fff" font-family="Arial" font-size="16" x="386" y="236">407</text>
    <rect fill="#333" height="242" width="1" x="144" y="10"/>
    <text font-family="Arial" font-size="16" font-style="italic" x="444" y="288">Tests passed</text>
</svg>
