<?xml version="1.0" encoding="UTF-8" standalone="yes"?>
<!-- Generated by https://github.com/RazrFalcon/barh -->
<svg height="359" shape-rendering="crispEdges" width="841" xmlns="http://www.w3.org/2000/svg">
    <text font-family="Arial" font-size="16" x="52" y="38">resvg 0.16.0</text>
    <text font-family="Arial" font-size="16" x="4" y="71">Chromium r901419</text>
    <text font-family="Arial" font-size="16" x="71" y="104">Firefox 91</text>
    <text font-family="Arial" font-size="16" x="52" y="137">Safari 14.1.1</text>
    <text font-family="Arial" font-size="16" x="52" y="170">Inkscape 1.1</text>
    <text font-family="Arial" font-size="16" x="45" y="203">librsvg 2.50.7</text>
    <text font-family="Arial" font-size="16" x="70" y="236">Batik 1.14</text>
    <text font-family="Arial" font-size="16" x="31" y="269">SVG.NET 3.2.3</text>
    <text font-family="Arial" font-size="16" x="56" y="302">QtSvg 6.1.2</text>
    <rect fill="#ccc" height="308" width="1" x="144" y="10"/>
    <text fill="#000" font-family="Arial" font-size="16" x="140" y="332">0</text>
    <rect fill="#ccc" height="308" width="1" x="313" y="10"/>
    <text fill="#000" font-family="Arial" font-size="16" x="300" y="332">362</text>
    <rect fill="#ccc" height="308" width="1" x="483" y="10"/>
    <text fill="#000" font-family="Arial" font-size="16" x="470" y="332">724</text>
    <rect fill="#ccc" height="308" width="1" x="653" y="10"/>
    <text fill="#000" font-family="Arial" font-size="16" x="636" y="332">1085</text>
    <rect fill="#ccc" height="308" width="1" x="823" y="10"/>
    <text fill="#000" font-family="Arial" font-size="16" x="806" y="332">1447</text>
    <rect fill="#3260cd" height="22" width="624" x="144" y="21"/>
    <text fill="#fff" font-family="Arial" font-size="16" x="729" y="38">1330</text>
    <rect fill="#3260cd" height="22" width="607" x="144" y="54"/>
    <text fill="#fff" font-family="Arial" font-size="16" x="712" y="71">1294</text>
    <rect fill="#3260cd" height="22" width="592" x="144" y="87"/>
    <text fill="#fff" font-family="Arial" font-size="16" x="697" y="104">1262</text>
    <rect fill="#3260cd" height="22" width="564" x="144" y="120"/>
    <text fill="#fff" font-family="Arial" font-size="16" x="669" y="137">1204</text>
    <rect fill="#3260cd" height="22" width="436" x="144" y="153"/>
    <text fill="#fff" font-family="Arial" font-size="16" x="550" y="170">930</text>
    <rect fill="#3260cd" height="22" width="470" x="144" y="186"/>
    <text fill="#fff" font-family="Arial" font-size="16" x="575" y="203">1003</text>
    <rect fill="#3260cd" height="22" width="438" x="144" y="219"/>
    <text fill="#fff" font-family="Arial" font-size="16" x="552" y="236">935</text>
    <rect fill="#3260cd" height="22" width="268" x="144" y="252"/>
    <text fill="#fff" font-family="Arial" font-size="16" x="382" y="269">572</text>
    <rect fill="#3260cd" height="22" width="184" x="144" y="285"/>
    <text fill="#fff" font-family="Arial" font-size="16" x="298" y="302">393</text>
    <rect fill="#333" height="308" width="1" x="144" y="10"/>
    <text font-family="Arial" font-size="16" font-style="italic" x="444" y="354">Tests passed</text>
</svg>
