<?xml version="1.0" encoding="UTF-8" standalone="yes"?>
<!-- Generated by https://github.com/RazrFalcon/barh -->
<svg height="247" shape-rendering="crispEdges" width="842" xmlns="http://www.w3.org/2000/svg">
    <text font-family="Arial" font-size="16" font-weight="bold" x="145" y="16">resvg test suite</text>
    <text font-family="Arial" font-size="16" x="62" y="58">resvg 0.2.0</text>
    <text font-family="Arial" font-size="16" x="4" y="91">Chromium r536395</text>
    <text font-family="Arial" font-size="16" x="28" y="122">Inkscape 0.92.2</text>
    <text font-family="Arial" font-size="16" x="37" y="157">librsvg 2.40.18</text>
    <text font-family="Arial" font-size="16" x="57" y="190">QtSvg 5.9.4</text>
    <rect fill="#ccc" height="176" width="1" x="145" y="30"/>
    <text fill="#000" font-family="Arial" font-size="16" x="141" y="220">0</text>
    <rect fill="#ccc" height="176" width="1" x="315" y="30"/>
    <text fill="#000" font-family="Arial" font-size="16" x="302" y="220">126</text>
    <rect fill="#ccc" height="176" width="1" x="486" y="30"/>
    <text fill="#000" font-family="Arial" font-size="16" x="474" y="220">251</text>
    <rect fill="#ccc" height="176" width="1" x="657" y="30"/>
    <text fill="#000" font-family="Arial" font-size="16" x="644" y="220">377</text>
    <rect fill="#ccc" height="176" width="1" x="828" y="30"/>
    <text fill="#000" font-family="Arial" font-size="16" x="815" y="220">502</text>
    <rect fill="#3260cd" height="22" width="606" x="145" y="41"/>
    <text fill="#fff" font-family="Arial" font-size="16" x="721" y="58">446</text>
    <rect fill="#3260cd" height="22" width="654" x="145" y="74"/>
    <text fill="#fff" font-family="Arial" font-size="16" x="771" y="91">481</text>
    <rect fill="#3260cd" height="22" width="580" x="145" y="107"/>
    <text fill="#fff" font-family="Arial" font-size="16" x="695" y="122">427</text>
    <rect fill="#3260cd" height="22" width="500" x="145" y="140"/>
    <text fill="#fff" font-family="Arial" font-size="16" x="615" y="157">368</text>
    <rect fill="#3260cd" height="22" width="414" x="145" y="173"/>
    <text fill="#fff" font-family="Arial" font-size="16" x="529" y="190">305</text>
    <rect fill="#333" height="176" width="1" x="145" y="30"/>
    <text font-family="Arial" font-size="16" font-style="italic" x="445" y="242">Tests passed</text>
</svg>
