<?xml version="1.0" encoding="UTF-8" standalone="yes"?>
<!-- Generated by https://github.com/RazrFalcon/barh -->
<svg height="293" shape-rendering="crispEdges" width="839" xmlns="http://www.w3.org/2000/svg">
    <text font-family="Arial" font-size="16" x="77" y="38">resvg git</text>
    <text font-family="Arial" font-size="16" x="43" y="71">Firefox 63.0.1</text>
    <text font-family="Arial" font-size="16" x="4" y="104">Chromium r599821</text>
    <text font-family="Arial" font-size="16" x="25" y="137">Inkscape 0.92.2</text>
    <text font-family="Arial" font-size="16" x="43" y="170">librsvg 2.44.8</text>
    <text font-family="Arial" font-size="16" x="76" y="203">Batik 1.9</text>
    <text font-family="Arial" font-size="16" x="49" y="236">QtSvg 5.11.1</text>
    <rect fill="#ccc" height="242" width="1" x="142" y="10"/>
    <text fill="#000" font-family="Arial" font-size="16" x="138" y="266">0</text>
    <rect fill="#ccc" height="242" width="1" x="312" y="10"/>
    <text fill="#000" font-family="Arial" font-size="16" x="299" y="266">169</text>
    <rect fill="#ccc" height="242" width="1" x="483" y="10"/>
    <text fill="#000" font-family="Arial" font-size="16" x="470" y="266">339</text>
    <rect fill="#ccc" height="242" width="1" x="654" y="10"/>
    <text fill="#000" font-family="Arial" font-size="16" x="641" y="266">508</text>
    <rect fill="#ccc" height="242" width="1" x="825" y="10"/>
    <text fill="#000" font-family="Arial" font-size="16" x="812" y="266">677</text>
    <rect fill="#3260cd" height="22" width="659" x="142" y="21"/>
    <text fill="#fff" font-family="Arial" font-size="16" x="771" y="38">654</text>
    <rect fill="#3260cd" height="22" width="637" x="142" y="54"/>
    <text fill="#fff" font-family="Arial" font-size="16" x="749" y="71">632</text>
    <rect fill="#3260cd" height="22" width="636" x="142" y="87"/>
    <text fill="#fff" font-family="Arial" font-size="16" x="750" y="104">631</text>
    <rect fill="#3260cd" height="22" width="562" x="142" y="120"/>
    <text fill="#fff" font-family="Arial" font-size="16" x="674" y="137">558</text>
    <rect fill="#3260cd" height="22" width="529" x="142" y="153"/>
    <text fill="#fff" font-family="Arial" font-size="16" x="641" y="170">525</text>
    <rect fill="#3260cd" height="22" width="521" x="142" y="186"/>
    <text fill="#fff" font-family="Arial" font-size="16" x="633" y="203">517</text>
    <rect fill="#3260cd" height="22" width="369" x="142" y="219"/>
    <text fill="#fff" font-family="Arial" font-size="16" x="481" y="236">366</text>
    <rect fill="#333" height="242" width="1" x="142" y="10"/>
    <text font-family="Arial" font-size="16" font-style="italic" x="442" y="288">Tests passed</text>
</svg>
