<?xml version="1.0" encoding="UTF-8" standalone="yes"?>
<!-- Generated by https://github.com/RazrFalcon/barh -->
<svg height="260" shape-rendering="crispEdges" width="839" xmlns="http://www.w3.org/2000/svg">
    <text font-family="Arial" font-size="16" x="77" y="38">resvg git</text>
    <text font-family="Arial" font-size="16" x="4" y="71">Chromium r599821</text>
    <text font-family="Arial" font-size="16" x="76" y="104">Batik 1.9</text>
    <text font-family="Arial" font-size="16" x="25" y="137">Inkscape 0.92.2</text>
    <text font-family="Arial" font-size="16" x="43" y="170">librsvg 2.44.8</text>
    <text font-family="Arial" font-size="16" x="49" y="203">QtSvg 5.11.1</text>
    <rect fill="#ccc" height="209" width="1" x="142" y="10"/>
    <text fill="#000" font-family="Arial" font-size="16" x="138" y="233">0</text>
    <rect fill="#ccc" height="209" width="1" x="312" y="10"/>
    <text fill="#000" font-family="Arial" font-size="16" x="300" y="233">161</text>
    <rect fill="#ccc" height="209" width="1" x="483" y="10"/>
    <text fill="#000" font-family="Arial" font-size="16" x="470" y="233">323</text>
    <rect fill="#ccc" height="209" width="1" x="654" y="10"/>
    <text fill="#000" font-family="Arial" font-size="16" x="641" y="233">484</text>
    <rect fill="#ccc" height="209" width="1" x="825" y="10"/>
    <text fill="#000" font-family="Arial" font-size="16" x="812" y="233">645</text>
    <rect fill="#3260cd" height="22" width="631" x="142" y="21"/>
    <text fill="#fff" font-family="Arial" font-size="16" x="743" y="38">596</text>
    <rect fill="#3260cd" height="22" width="633" x="142" y="54"/>
    <text fill="#fff" font-family="Arial" font-size="16" x="745" y="71">598</text>
    <rect fill="#3260cd" height="22" width="514" x="142" y="87"/>
    <text fill="#fff" font-family="Arial" font-size="16" x="626" y="104">486</text>
    <rect fill="#3260cd" height="22" width="541" x="142" y="120"/>
    <text fill="#fff" font-family="Arial" font-size="16" x="656" y="137">511</text>
    <rect fill="#3260cd" height="22" width="508" x="142" y="153"/>
    <text fill="#fff" font-family="Arial" font-size="16" x="620" y="170">480</text>
    <rect fill="#3260cd" height="22" width="352" x="142" y="186"/>
    <text fill="#fff" font-family="Arial" font-size="16" x="464" y="203">333</text>
    <rect fill="#333" height="209" width="1" x="142" y="10"/>
    <text font-family="Arial" font-size="16" font-style="italic" x="442" y="255">Tests passed</text>
</svg>
