<?xml version="1.0" encoding="UTF-8" standalone="yes"?>
<!-- Generated by https://github.com/RazrFalcon/barh -->
<svg height="227" shape-rendering="crispEdges" width="842" xmlns="http://www.w3.org/2000/svg">
    <text font-family="Arial" font-size="16" x="62" y="38">resvg 0.2.0</text>
    <text font-family="Arial" font-size="16" x="4" y="71">Chromium r536395</text>
    <text font-family="Arial" font-size="16" x="28" y="104">Inkscape 0.92.2</text>
    <text font-family="Arial" font-size="16" x="37" y="137">librsvg 2.40.18</text>
    <text font-family="Arial" font-size="16" x="57" y="168">QtSvg 5.9.4</text>
    <rect fill="#ccc" height="176" width="1" x="145" y="10"/>
    <text fill="#000" font-family="Arial" font-size="16" x="141" y="200">0</text>
    <rect fill="#ccc" height="176" width="1" x="315" y="10"/>
    <text fill="#000" font-family="Arial" font-size="16" x="307" y="200">85</text>
    <rect fill="#ccc" height="176" width="1" x="486" y="10"/>
    <text fill="#000" font-family="Arial" font-size="16" x="473" y="200">169</text>
    <rect fill="#ccc" height="176" width="1" x="657" y="10"/>
    <text fill="#000" font-family="Arial" font-size="16" x="644" y="200">254</text>
    <rect fill="#ccc" height="176" width="1" x="828" y="10"/>
    <text fill="#000" font-family="Arial" font-size="16" x="815" y="200">338</text>
    <rect fill="#3260cd" height="22" width="379" x="145" y="21"/>
    <text fill="#fff" font-family="Arial" font-size="16" x="494" y="38">188</text>
    <rect fill="#3260cd" height="22" width="610" x="145" y="54"/>
    <text fill="#fff" font-family="Arial" font-size="16" x="725" y="71">302</text>
    <rect fill="#3260cd" height="22" width="525" x="145" y="87"/>
    <text fill="#fff" font-family="Arial" font-size="16" x="640" y="104">260</text>
    <rect fill="#3260cd" height="22" width="385" x="145" y="120"/>
    <text fill="#fff" font-family="Arial" font-size="16" x="502" y="137">191</text>
    <rect fill="#3260cd" height="22" width="286" x="145" y="153"/>
    <text fill="#fff" font-family="Arial" font-size="16" x="401" y="168">142</text>
    <rect fill="#333" height="176" width="1" x="145" y="10"/>
    <text font-family="Arial" font-size="16" font-style="italic" x="445" y="222">Tests passed</text>
</svg>
