<?xml version="1.0" encoding="UTF-8" standalone="yes"?>
<!-- Generated by https://github.com/RazrFalcon/barh -->
<svg height="247" shape-rendering="crispEdges" width="833" xmlns="http://www.w3.org/2000/svg">
    <text font-family="Arial" font-size="16" font-weight="bold" x="149" y="16">Time to render Oxygen Icon Theme</text>
    <text font-family="Arial" font-size="16" x="4" y="58">resvg 0.2.0 (cairo)</text>
    <text font-family="Arial" font-size="16" x="25" y="91">resvg 0.2.0 (qt)</text>
    <text font-family="Arial" font-size="16" x="28" y="124">librsvg 2.40.18</text>
    <text font-family="Arial" font-size="16" x="48" y="157">QtSvg 5.9.4</text>
    <text font-family="Arial" font-size="16" x="19" y="190">Inkscape 0.92.2</text>
    <rect fill="#ccc" height="176" width="1" x="149" y="30"/>
    <text fill="#000" font-family="Arial" font-size="16" x="132" y="220">0sec</text>
    <rect fill="#ccc" height="176" width="1" x="312" y="30"/>
    <text fill="#000" font-family="Arial" font-size="16" x="286" y="220">500sec</text>
    <rect fill="#ccc" height="176" width="1" x="475" y="30"/>
    <text fill="#000" font-family="Arial" font-size="16" x="445" y="220">1000sec</text>
    <rect fill="#ccc" height="176" width="1" x="638" y="30"/>
    <text fill="#000" font-family="Arial" font-size="16" x="608" y="220">1500sec</text>
    <rect fill="#ccc" height="176" width="1" x="802" y="30"/>
    <text fill="#000" font-family="Arial" font-size="16" x="772" y="220">2000sec</text>
    <rect fill="#3260cd" height="22" width="51" x="149" y="41"/>
    <text fill="#fff" font-family="Arial" font-size="16" x="170" y="58">159</text>
    <rect fill="#3260cd" height="22" width="53" x="149" y="74"/>
    <text fill="#fff" font-family="Arial" font-size="16" x="172" y="91">163</text>
    <rect fill="#3260cd" height="22" width="65" x="149" y="107"/>
    <text fill="#fff" font-family="Arial" font-size="16" x="184" y="124">200</text>
    <rect fill="#3260cd" height="22" width="163" x="149" y="140"/>
    <text fill="#fff" font-family="Arial" font-size="16" x="282" y="157">502</text>
    <rect fill="#3260cd" height="22" width="525" x="149" y="173"/>
    <text fill="#fff" font-family="Arial" font-size="16" x="635" y="190">1610</text>
    <rect fill="#333" height="176" width="1" x="149" y="30"/>
    <text font-family="Arial" font-size="16" font-style="italic" x="437" y="242">Time passed</text>
</svg>
