<?xml version="1.0" encoding="UTF-8" standalone="yes"?>
<!-- Generated by https://github.com/RazrFalcon/barh -->
<svg height="392" shape-rendering="crispEdges" width="841" xmlns="http://www.w3.org/2000/svg">
    <text font-family="Arial" font-size="16" x="52" y="38">resvg 0.15.0</text>
    <text font-family="Arial" font-size="16" x="4" y="69">Chromium r883894</text>
    <text font-family="Arial" font-size="16" x="69" y="104">Firefox 89</text>
    <text font-family="Arial" font-size="16" x="52" y="137">Safari 14.1.1</text>
    <text font-family="Arial" font-size="16" x="52" y="170">Inkscape 1.1</text>
    <text font-family="Arial" font-size="16" x="45" y="203">librsvg 2.50.7</text>
    <text font-family="Arial" font-size="16" x="70" y="236">Batik 1.14</text>
    <text font-family="Arial" font-size="16" x="31" y="269">SVG.NET 3.2.3</text>
    <text font-family="Arial" font-size="16" x="59" y="302">QtSvg 6.1.1</text>
    <text font-family="Arial" font-size="16" x="48" y="335">wxSvg 1.5.11</text>
    <rect fill="#ccc" height="341" width="1" x="144" y="10"/>
    <text fill="#000" font-family="Arial" font-size="16" x="140" y="365">0</text>
    <rect fill="#ccc" height="341" width="1" x="313" y="10"/>
    <text fill="#000" font-family="Arial" font-size="16" x="300" y="365">344</text>
    <rect fill="#ccc" height="341" width="1" x="483" y="10"/>
    <text fill="#000" font-family="Arial" font-size="16" x="470" y="365">688</text>
    <rect fill="#ccc" height="341" width="1" x="653" y="10"/>
    <text fill="#000" font-family="Arial" font-size="16" x="636" y="365">1032</text>
    <rect fill="#ccc" height="341" width="1" x="823" y="10"/>
    <text fill="#000" font-family="Arial" font-size="16" x="806" y="365">1376</text>
    <rect fill="#3260cd" height="22" width="611" x="144" y="21"/>
    <text fill="#fff" font-family="Arial" font-size="16" x="716" y="38">1240</text>
    <rect fill="#3260cd" height="22" width="605" x="144" y="54"/>
    <text fill="#fff" font-family="Arial" font-size="16" x="710" y="69">1227</text>
    <rect fill="#3260cd" height="22" width="588" x="144" y="87"/>
    <text fill="#fff" font-family="Arial" font-size="16" x="694" y="104">1192</text>
    <rect fill="#3260cd" height="22" width="579" x="144" y="120"/>
    <text fill="#fff" font-family="Arial" font-size="16" x="685" y="137">1175</text>
    <rect fill="#3260cd" height="22" width="454" x="144" y="153"/>
    <text fill="#fff" font-family="Arial" font-size="16" x="570" y="170">921</text>
    <rect fill="#3260cd" height="22" width="485" x="144" y="186"/>
    <text fill="#fff" font-family="Arial" font-size="16" x="599" y="203">984</text>
    <rect fill="#3260cd" height="22" width="458" x="144" y="219"/>
    <text fill="#fff" font-family="Arial" font-size="16" x="572" y="236">930</text>
    <rect fill="#3260cd" height="22" width="282" x="144" y="252"/>
    <text fill="#fff" font-family="Arial" font-size="16" x="396" y="269">572</text>
    <rect fill="#3260cd" height="22" width="190" x="144" y="285"/>
    <text fill="#fff" font-family="Arial" font-size="16" x="304" y="302">387</text>
    <rect fill="#3260cd" height="22" width="145" x="144" y="318"/>
    <text fill="#fff" font-family="Arial" font-size="16" x="259" y="335">295</text>
    <rect fill="#333" height="341" width="1" x="144" y="10"/>
    <text font-family="Arial" font-size="16" font-style="italic" x="444" y="387">Tests passed</text>
</svg>
